<svg width="1920" height="960" viewBox="0 0 1920 960" fill="none" xmlns="http://www.w3.org/2000/svg">
<g opacity="0.1">
<mask id="mask0_159_5872" style="mask-type:alpha" maskUnits="userSpaceOnUse" x="0" y="0" width="2191" height="960">
<rect x="0.0507812" width="2190.77" height="960" fill="#F5E6E0"/>
</mask>
<g mask="url(#mask0_159_5872)">
<g opacity="0.4">
<path d="M547.864 155.815L384.295 344.862L386.141 346.462L549.71 157.415L547.864 155.815Z" fill="#222222"/>
<path d="M555.126 162.092L391.557 351.138L393.403 352.738L556.972 163.692L555.126 162.092Z" fill="#222222"/>
<path d="M562.388 168.369L398.818 357.292L400.665 358.892L564.234 169.969L562.388 168.369Z" fill="#222222"/>
<path d="M569.647 174.646L406.078 363.569L407.924 365.169L571.493 176.246L569.647 174.646Z" fill="#222222"/>
<path d="M576.911 180.923L413.342 369.846L415.188 371.446L578.757 182.523L576.911 180.923Z" fill="#222222"/>
<path d="M584.171 187.077L420.602 376.123L422.448 377.723L586.017 188.677L584.171 187.077Z" fill="#222222"/>
<path d="M591.432 193.354L427.863 382.4L429.709 384L593.279 194.954L591.432 193.354Z" fill="#222222"/>
<path d="M598.694 199.631L435.002 388.554L436.971 390.154L600.54 201.231L598.694 199.631Z" fill="#222222"/>
<path d="M605.833 205.908L442.264 394.831L444.233 396.431L607.802 207.508L605.833 205.908Z" fill="#222222"/>
<path d="M613.095 212.062L449.525 401.108L451.372 402.708L614.941 213.785L613.095 212.062Z" fill="#222222"/>
<path d="M620.356 218.338L456.787 407.385L458.633 408.985L622.202 219.938L620.356 218.338Z" fill="#222222"/>
<path d="M627.618 224.615L464.049 413.538L465.895 415.262L629.464 226.215L627.618 224.615Z" fill="#222222"/>
<path d="M634.878 230.892L471.309 419.815L473.155 421.415L636.724 232.492L634.878 230.892Z" fill="#222222"/>
<path d="M642.14 237.169L478.57 426.092L480.416 427.692L643.986 238.769L642.14 237.169Z" fill="#222222"/>
<path d="M649.403 243.323L485.834 432.369L487.68 433.969L651.249 244.923L649.403 243.323Z" fill="#222222"/>
<path d="M656.665 249.6L493.096 438.646L494.942 440.246L658.511 251.2L656.665 249.6Z" fill="#222222"/>
<path d="M663.927 255.877L500.357 444.8L502.204 446.4L665.773 257.477L663.927 255.877Z" fill="#222222"/>
<path d="M671.063 262.154L507.494 451.077L509.463 452.677L673.033 263.754L671.063 262.154Z" fill="#222222"/>
<path d="M678.325 268.431L514.756 457.354L516.602 458.954L680.294 270.031L678.325 268.431Z" fill="#222222"/>
<path d="M685.589 274.585L522.02 463.631L523.866 465.231L687.435 276.185L685.589 274.585Z" fill="#222222"/>
<path d="M692.851 280.862L529.281 469.908L531.127 471.508L694.697 282.462L692.851 280.862Z" fill="#222222"/>
<path d="M700.108 287.138L536.539 476.062L538.385 477.661L701.954 288.738L700.108 287.138Z" fill="#222222"/>
<path d="M707.37 293.415L543.801 482.339L545.647 483.938L709.216 295.015L707.37 293.415Z" fill="#222222"/>
<path d="M714.634 299.692L551.064 488.615L552.911 490.215L716.48 301.292L714.634 299.692Z" fill="#222222"/>
<path d="M721.895 305.846L558.326 494.892L560.172 496.492L723.742 307.446L721.895 305.846Z" fill="#222222"/>
<path d="M729.157 312.123L565.588 501.169L567.434 502.769L731.003 313.723L729.157 312.123Z" fill="#222222"/>
<path d="M2076.11 171.446L1912.54 360.492L1914.39 362.092L2078.08 173.046L2076.11 171.446Z" fill="#222222"/>
<path d="M2083.37 177.723L1919.8 366.769L1921.65 368.369L2085.22 179.323L2083.37 177.723Z" fill="#222222"/>
<path d="M4.97221 668.185L3.12605 666.462L-49.1816 718.646V722.092L4.97221 668.185Z" fill="#222222"/>
<path d="M11.7414 674.954L9.89529 673.231L-49.1816 732.185V735.631L11.7414 674.954Z" fill="#222222"/>
<path d="M18.5107 681.723L16.6645 680L-49.1816 745.723V749.169L18.5107 681.723Z" fill="#222222"/>
<path d="M25.2799 688.492L23.4337 686.769L-49.1816 759.262V762.708L25.2799 688.492Z" fill="#222222"/>
<path d="M32.0491 695.262L30.203 693.538L-49.1816 772.677V776.246L32.0491 695.262Z" fill="#222222"/>
<path d="M38.8184 702.031L36.9722 700.308L-49.1816 786.215V789.661L38.8184 702.031Z" fill="#222222"/>
<path d="M45.5876 708.8L43.7414 707.077L-49.1816 799.754V803.2L45.5876 708.8Z" fill="#222222"/>
<path d="M52.3568 715.569L50.5107 713.846L-49.1816 813.292V816.738L52.3568 715.569Z" fill="#222222"/>
<path d="M59.1261 722.339L57.2799 720.615L-49.1816 826.708V830.277L59.1261 722.339Z" fill="#222222"/>
<path d="M65.8953 729.108L64.0491 727.385L-49.1816 840.246V843.692L65.8953 729.108Z" fill="#222222"/>
<path d="M72.5414 735.877L70.8184 734.154L-49.1816 853.785V857.231L72.5414 735.877Z" fill="#222222"/>
<path d="M79.3107 742.646L77.5876 740.923L-49.1816 867.323V870.769L79.3107 742.646Z" fill="#222222"/>
<path d="M86.0799 749.415L84.3568 747.692L-49.1816 880.862V884.308L86.0799 749.415Z" fill="#222222"/>
<path d="M92.8491 756.185L91.126 754.462L-49.1816 894.277V897.846L92.8491 756.185Z" fill="#222222"/>
<path d="M99.6184 762.954L97.8953 761.231L-49.1816 907.815V911.262L99.6184 762.954Z" fill="#222222"/>
<path d="M106.388 769.723L104.665 768L-49.1816 921.354V924.8L106.388 769.723Z" fill="#222222"/>
<path d="M113.157 776.492L111.434 774.769L-49.1816 934.892V938.338L113.157 776.492Z" fill="#222222"/>
<path d="M119.926 783.262L118.203 781.538L-49.1816 948.308V951.877L119.926 783.262Z" fill="#222222"/>
<path d="M762.511 856.246C795.954 856.246 823.065 829.135 823.065 795.692C823.065 762.249 795.954 735.138 762.511 735.138C729.068 735.138 701.957 762.249 701.957 795.692C701.957 829.135 729.068 856.246 762.511 856.246Z" stroke="#222222" stroke-width="5" stroke-miterlimit="10"/>
<path d="M303.623 596.648C309.676 571.398 294.114 546.023 268.865 539.97C243.616 533.918 218.24 549.48 212.188 574.729C206.135 599.978 221.697 625.353 246.946 631.406C272.196 637.459 297.571 621.897 303.623 596.648Z" stroke="#222222" stroke-width="5" stroke-miterlimit="10"/>
<path d="M1723.3 358.966C1729.27 333.696 1713.62 308.373 1688.35 302.406C1663.08 296.439 1637.76 312.088 1631.79 337.358C1625.82 362.628 1641.47 387.95 1666.74 393.917C1692.01 399.884 1717.33 384.236 1723.3 358.966Z" stroke="#222222" stroke-width="5" stroke-miterlimit="10"/>
<path d="M1930.88 -160C1930.88 -84.9231 1901.59 -14.2769 1848.54 38.8923C1795.5 92.0616 1724.85 121.231 1649.65 121.231C1574.45 121.231 1503.93 91.9385 1450.76 38.8923C1397.59 -14.1538 1368.42 -84.9231 1368.42 -160H1283.5C1283.5 42.2154 1447.43 206.154 1649.65 206.154C1851.87 206.154 2015.8 42.2154 2015.8 -160H1930.88Z" fill="#222222"/>
<path d="M1649.65 38.7692C1702.7 38.7692 1752.67 18.0923 1790.2 -19.4462C1827.74 -56.9846 1848.42 -106.831 1848.42 -160H1733.96C1733.96 -137.108 1725.47 -116.554 1709.22 -100.431C1693.1 -84.3077 1672.42 -75.6923 1649.65 -75.6923C1626.76 -75.6923 1606.2 -84.1846 1590.08 -100.431C1573.96 -116.554 1565.34 -137.231 1565.34 -160H1450.88C1450.88 -106.954 1471.56 -56.9846 1509.1 -19.4462C1546.63 18.0923 1596.6 38.7692 1649.65 38.7692Z" fill="#222222"/>
<path d="M1779.62 1021.54C1779.62 773.169 1578.26 571.815 1329.89 571.815C1081.53 571.815 880.049 773.169 880.049 1021.54H925.587C925.587 913.6 967.68 812.061 1043.99 735.754C1120.29 659.446 1221.83 617.354 1329.77 617.354C1437.71 617.354 1539.25 659.446 1615.56 735.754C1691.86 812.061 1733.96 913.6 1733.96 1021.54H1779.62Z" fill="#222222"/>
<path d="M1329.77 721.969C1249.77 721.969 1174.45 753.108 1117.96 809.723C1061.34 866.215 1030.2 941.538 1030.2 1021.54H1100.36C1100.36 960.246 1124.23 902.646 1167.56 859.323C1210.88 816 1268.48 792.123 1329.77 792.123C1391.06 792.123 1448.66 816 1491.99 859.323C1535.31 902.646 1559.19 960.246 1559.19 1021.54H1629.34C1629.34 941.538 1598.2 866.215 1541.59 809.723C1484.97 753.231 1409.9 721.969 1329.77 721.969Z" fill="#222222"/>
<path d="M1329.77 878.277C1291.5 878.277 1255.56 893.169 1228.48 920.246C1201.4 947.323 1186.51 983.261 1186.51 1021.54H1473.16C1473.16 983.261 1458.27 947.323 1431.19 920.246C1404.11 893.169 1368.05 878.277 1329.77 878.277Z" fill="#222222"/>
<path d="M1121.28 476.923L1150.08 501.538L1178.88 476.923L1207.68 501.538L1236.36 476.923L1265.16 501.538L1293.96 476.923L1322.76 501.538L1351.56 476.923L1380.36 501.538L1409.16 476.923L1437.96 501.538L1466.76 476.923L1495.56 501.538L1524.36 476.923" stroke="#222222" stroke-width="3" stroke-miterlimit="10"/>
<path d="M1121.28 510.154L1150.08 534.769L1178.88 510.154L1207.68 534.769L1236.36 510.154L1265.16 534.769L1293.96 510.154L1322.76 534.769L1351.56 510.154L1380.36 534.769L1409.16 510.154L1437.96 534.769L1466.76 510.154L1495.56 534.769L1524.36 510.154" stroke="#222222" stroke-width="3" stroke-miterlimit="10"/>
<path d="M454.447 -160L39.6777 351.262L41.647 352.738L457.647 -160H454.447Z" fill="#222222"/>
<path d="M349.338 90.5846L552.661 -160H549.461L347.369 89.1077L349.338 90.5846Z" fill="#222222"/>
<path d="M2228.48 -160H2225.4L1873.03 274.338L1874.88 275.939L2228.48 -160Z" fill="#222222"/>
<path d="M539.37 731.569L304.17 1021.54H307.247L541.339 733.046L539.37 731.569Z" fill="#222222"/>
<path d="M399.186 1021.54H402.262L849.032 470.892L847.063 469.415L399.186 1021.54Z" fill="#222222"/>
<path d="M1853.59 827.077L1695.8 1021.54H1699L1855.43 828.677L1853.59 827.077Z" fill="#222222"/>
<path d="M1790.82 1021.54H1794.02L2163.13 566.523L2161.28 564.923L1790.82 1021.54Z" fill="#222222"/>
</g>
</g>
</g>
</svg>
