<svg width="1780" height="420" viewBox="0 0 1780 420" fill="none" xmlns="http://www.w3.org/2000/svg">
<mask id="mask0_131_1118" style="mask-type:alpha" maskUnits="userSpaceOnUse" x="0" y="0" width="1780" height="420">
<rect width="1780" height="420" fill="#F5E6E0"/>
</mask>
<g mask="url(#mask0_131_1118)">
<g opacity="0.4">
<path d="M445.1 126.6L312.2 280.2L313.7 281.5L446.6 127.9L445.1 126.6Z" fill="white"/>
<path d="M451 131.7L318.1 285.3L319.6 286.6L452.5 133L451 131.7Z" fill="white"/>
<path d="M456.9 136.8L324 290.3L325.5 291.6L458.4 138.1L456.9 136.8Z" fill="white"/>
<path d="M462.8 141.9L329.9 295.4L331.4 296.7L464.3 143.2L462.8 141.9Z" fill="white"/>
<path d="M468.7 147L335.8 300.5L337.3 301.8L470.2 148.3L468.7 147Z" fill="white"/>
<path d="M474.6 152L341.7 305.6L343.2 306.9L476.1 153.3L474.6 152Z" fill="white"/>
<path d="M480.5 157.1L347.6 310.7L349.1 312L482 158.4L480.5 157.1Z" fill="white"/>
<path d="M486.4 162.2L353.4 315.7L355 317L487.9 163.5L486.4 162.2Z" fill="white"/>
<path d="M492.2 167.3L359.3 320.8L360.9 322.1L493.8 168.6L492.2 167.3Z" fill="white"/>
<path d="M498.1 172.3L365.2 325.9L366.7 327.2L499.6 173.7L498.1 172.3Z" fill="white"/>
<path d="M504 177.4L371.1 331L372.6 332.3L505.5 178.7L504 177.4Z" fill="white"/>
<path d="M509.9 182.5L377 336L378.5 337.4L511.4 183.8L509.9 182.5Z" fill="white"/>
<path d="M515.8 187.6L382.9 341.1L384.4 342.4L517.3 188.9L515.8 187.6Z" fill="white"/>
<path d="M521.7 192.7L388.8 346.2L390.3 347.5L523.2 194L521.7 192.7Z" fill="white"/>
<path d="M527.6 197.7L394.7 351.3L396.2 352.6L529.1 199L527.6 197.7Z" fill="white"/>
<path d="M533.5 202.8L400.6 356.4L402.1 357.7L535 204.1L533.5 202.8Z" fill="white"/>
<path d="M539.4 207.9L406.5 361.4L408 362.7L540.9 209.2L539.4 207.9Z" fill="white"/>
<path d="M545.2 213L412.3 366.5L413.9 367.8L546.8 214.3L545.2 213Z" fill="white"/>
<path d="M551.1 218.1L418.2 371.6L419.7 372.9L552.7 219.4L551.1 218.1Z" fill="white"/>
<path d="M557 223.1L424.1 376.7L425.6 378L558.5 224.4L557 223.1Z" fill="white"/>
<path d="M562.9 228.2L430 381.8L431.5 383.1L564.4 229.5L562.9 228.2Z" fill="white"/>
<path d="M568.8 233.3L435.9 386.8L437.4 388.1L570.3 234.6L568.8 233.3Z" fill="white"/>
<path d="M574.7 238.4L441.8 391.9L443.3 393.2L576.2 239.7L574.7 238.4Z" fill="white"/>
<path d="M580.6 243.5L447.7 397L449.2 398.3L582.1 244.8L580.6 243.5Z" fill="white"/>
<path d="M586.5 248.5L453.6 402.1L455.1 403.4L588 249.8L586.5 248.5Z" fill="white"/>
<path d="M592.4 253.6L459.5 407.2L461 408.5L593.9 254.9L592.4 253.6Z" fill="white"/>
<path d="M1686.8 139.3L1553.9 292.9L1555.4 294.2L1688.4 140.6L1686.8 139.3Z" fill="white"/>
<path d="M1692.7 144.4L1559.8 298L1561.3 299.3L1694.2 145.7L1692.7 144.4Z" fill="white"/>
<path d="M1698.6 149.5L1565.7 303L1567.2 304.3L1700.1 150.8L1698.6 149.5Z" fill="white"/>
<path d="M1704.5 154.6L1571.6 308.1L1573.1 309.4L1706 155.9L1704.5 154.6Z" fill="white"/>
<path d="M1710.4 159.6L1577.5 313.2L1579 314.5L1711.9 161L1710.4 159.6Z" fill="white"/>
<path d="M1716.3 164.7L1583.4 318.3L1584.9 319.6L1717.8 166L1716.3 164.7Z" fill="white"/>
<path d="M1722.2 169.8L1589.3 323.4L1590.8 324.7L1723.7 171.1L1722.2 169.8Z" fill="white"/>
<path d="M1728.1 174.9L1595.2 328.4L1596.7 329.7L1729.6 176.2L1728.1 174.9Z" fill="white"/>
<path d="M1734 180L1601 333.5L1602.6 334.8L1735.5 181.3L1734 180Z" fill="white"/>
<path d="M1739.8 185L1606.9 338.6L1608.4 339.9L1741.4 186.4L1739.8 185Z" fill="white"/>
<path d="M1745.7 190.1L1612.8 343.7L1614.3 345L1747.2 191.4L1745.7 190.1Z" fill="white"/>
<path d="M1751.6 195.2L1618.7 348.7L1620.2 350.1L1753.1 196.5L1751.6 195.2Z" fill="white"/>
<path d="M1757.5 200.3L1624.6 353.8L1626.1 355.1L1759 201.6L1757.5 200.3Z" fill="white"/>
<path d="M1763.4 205.4L1630.5 358.9L1632 360.2L1764.9 206.7L1763.4 205.4Z" fill="white"/>
<path d="M1769.3 210.4L1636.4 364L1637.9 365.3L1770.8 211.7L1769.3 210.4Z" fill="white"/>
<path d="M1775.2 215.5L1642.3 369.1L1643.8 370.4L1776.7 216.8L1775.2 215.5Z" fill="white"/>
<path d="M1781.1 220.6L1648.2 374.1L1649.7 375.4L1782.6 221.9L1781.1 220.6Z" fill="white"/>
<path d="M1787 225.7L1654 379.2L1655.6 380.5L1788.5 227L1787 225.7Z" fill="white"/>
<path d="M1792.8 230.8L1659.9 384.3L1661.5 385.6L1794.4 232.1L1792.8 230.8Z" fill="white"/>
<path d="M1798.7 235.8L1665.8 389.4L1667.3 390.7L1800.2 237.1L1798.7 235.8Z" fill="white"/>
<path d="M1804.6 240.9L1671.7 394.5L1673.2 395.8L1806.1 242.2L1804.6 240.9Z" fill="white"/>
<path d="M1810.5 246L1677.6 399.5L1679.1 400.8L1812 247.3L1810.5 246Z" fill="white"/>
<path d="M1816.4 251.1L1683.5 404.6L1685 405.9L1817.9 252.4L1816.4 251.1Z" fill="white"/>
<path d="M1822.3 256.2L1689.4 409.7L1690.9 411L1823.8 257.5L1822.3 256.2Z" fill="white"/>
<path d="M1828.2 261.2L1695.3 414.8L1696.8 416.1L1829.7 262.5L1828.2 261.2Z" fill="white"/>
<path d="M1834.1 266.3L1701.2 419.9L1702.7 421.2L1835.6 267.6L1834.1 266.3Z" fill="white"/>
<path d="M1400.14 291.66C1404.99 271.128 1392.27 250.553 1371.74 245.705C1351.21 240.857 1330.64 253.571 1325.79 274.103C1320.94 294.635 1333.65 315.21 1354.19 320.058C1374.72 324.906 1395.29 312.192 1400.14 291.66Z" stroke="white" stroke-width="5" stroke-miterlimit="10"/>
<path d="M1568.8 -130C1568.8 -69 1545 -11.6 1501.9 31.6C1458.8 74.8 1401.4 98.5 1340.3 98.5C1279.2 98.5 1221.9 74.7 1178.7 31.6C1135.5 -11.5 1111.8 -69 1111.8 -130H1042.8C1042.8 34.3 1176 167.5 1340.3 167.5C1504.6 167.5 1637.8 34.3 1637.8 -130H1568.8Z" fill="white"/>
<path d="M1340.3 31.5C1383.4 31.5 1424 14.7 1454.5 -15.8C1485 -46.3 1501.8 -86.8 1501.8 -130H1408.8C1408.8 -111.4 1401.9 -94.7 1388.7 -81.6C1375.6 -68.5 1358.8 -61.5 1340.3 -61.5C1321.7 -61.5 1305 -68.4 1291.9 -81.6C1278.8 -94.7 1271.8 -111.5 1271.8 -130H1178.8C1178.8 -86.9 1195.6 -46.3 1226.1 -15.8C1256.6 14.7 1297.2 31.5 1340.3 31.5Z" fill="white"/>
<path d="M911 387.5L934.4 407.5L957.8 387.5L981.2 407.5L1004.5 387.5L1027.9 407.5L1051.3 387.5L1074.7 407.5L1098.1 387.5L1121.5 407.5L1144.9 387.5L1168.3 407.5L1191.7 387.5L1215.1 407.5L1238.5 387.5" stroke="white" stroke-width="3" stroke-miterlimit="10"/>
<path d="M911 414.5L934.4 434.5L957.8 414.5L981.2 434.5L1004.5 414.5L1027.9 434.5L1051.3 414.5L1074.7 434.5L1098.1 414.5L1121.5 434.5L1144.9 414.5L1168.3 434.5L1191.7 414.5L1215.1 434.5L1238.5 414.5" stroke="white" stroke-width="3" stroke-miterlimit="10"/>
<path d="M369.2 -130L32.2 285.4L33.8 286.6L371.8 -130H369.2Z" fill="white"/>
<path d="M283.8 73.6L449 -130H446.4L282.2 72.4L283.8 73.6Z" fill="white"/>
<path d="M1810.6 -130H1808.1L1521.8 222.9L1523.3 224.2L1810.6 -130Z" fill="white"/>
<path d="M1771.8 9.89999L1773.3 11.2L1880 -120.3V-123.5L1771.8 9.89999Z" fill="white"/>
<path d="M324.3 830H326.8L689.8 382.6L688.2 381.4L324.3 830Z" fill="white"/>
</g>
</g>
</svg>
